<?xml version="1.0" standalone="no"?>
<!DOCTYPE svg PUBLIC "-//W3C//DTD SVG 20010904//EN"
 "http://www.w3.org/TR/2001/REC-SVG-20010904/DTD/svg10.dtd">
<svg version="1.0" xmlns="http://www.w3.org/2000/svg"
 width="544.000000pt" height="544.000000pt" viewBox="0 0 544.000000 544.000000"
 preserveAspectRatio="xMidYMid meet">
<metadata>
Created by potrace 1.14, written by Peter Selinger 2001-2017
</metadata>
<g transform="translate(0.000000,544.000000) scale(0.100000,-0.100000)"
fill="#000000" stroke="none">
<path d="M845 5204 c-5 -2 -55 -5 -109 -6 l-99 -3 2 -75 c1 -41 2 -81 2 -87 0
-7 0 -33 0 -58 0 -44 0 -59 -2 -90 0 -8 0 -48 1 -89 l1 -74 47 0 c57 -1 220
-2 245 -1 9 0 118 0 242 0 124 0 232 0 240 0 8 0 116 0 240 0 124 0 242 0 263
0 20 0 78 0 127 0 126 1 177 -1 186 -7 4 -2 10 0 14 6 4 6 11 8 16 5 5 -4 38
-6 74 -5 36 1 71 1 78 1 6 0 140 0 297 0 157 0 292 0 300 0 8 0 56 0 105 0 50
0 97 0 105 0 8 0 83 0 165 -1 162 -1 374 -1 403 -1 13 0 90 0 157 0 6 0 52 0
102 1 51 1 97 -1 102 -4 5 -4 12 -2 16 4 4 6 11 8 16 5 7 -5 66 -6 152 -4 25
1 263 0 282 -1 11 -1 25 -1 30 -1 14 -1 185 0 213 0 20 1 22 -4 23 -57 1 -31
1 -61 0 -66 -2 -8 -3 -142 -2 -291 0 -83 0 -85 0 -200 -1 -49 0 -99 1 -110 1
-11 1 -27 1 -35 -2 -115 -1 -142 4 -150 3 -6 2 -10 -2 -10 -14 0 -4 -104 11
-115 8 -6 41 -8 80 -5 37 3 69 4 71 2 2 -2 55 -4 117 -3 62 1 132 1 156 2 39
0 42 2 42 27 -1 23 -1 288 -1 332 0 8 0 80 0 160 0 80 0 152 0 160 0 8 0 80 0
160 0 80 0 152 0 160 0 24 0 304 0 315 0 6 1 50 2 98 1 49 -2 92 -8 98 -5 5
-27 9 -48 9 -22 0 -69 0 -105 1 -36 0 -73 1 -82 1 -10 0 -70 0 -133 0 -63 -1
-123 -1 -132 -1 -10 0 -45 0 -78 0 -33 0 -67 0 -75 0 -8 0 -82 0 -165 0 -82 0
-205 0 -272 0 -68 0 -175 0 -238 0 -63 0 -123 0 -132 0 -10 0 -45 0 -78 0 -33
0 -67 0 -75 0 -8 0 -82 0 -165 0 -82 0 -205 0 -272 0 -68 0 -175 0 -238 0 -63
0 -123 0 -132 0 -10 0 -45 0 -78 0 -33 0 -67 0 -75 0 -8 0 -82 0 -165 0 -82 0
-205 0 -272 0 -68 0 -175 0 -238 0 -63 0 -123 0 -132 0 -10 0 -45 0 -78 0 -33
0 -67 0 -75 0 -8 0 -82 0 -165 0 -82 0 -205 0 -272 0 -68 0 -175 0 -238 0 -63
0 -123 0 -132 0 -119 -2 -145 -1 -151 2 -4 2 -11 3 -17 1z"/>
<path d="M175 2401 c-3 -2 -25 -3 -50 -3 -43 1 -45 0 -45 -26 1 -24 1 -211 1
-252 0 -8 0 -62 0 -120 0 -58 0 -112 0 -120 0 -8 0 -62 0 -120 0 -58 0 -112 0
-120 0 -8 0 -62 0 -120 0 -58 0 -112 0 -120 0 -8 0 -62 0 -120 0 -58 0 -112 0
-120 -2 -189 0 -275 8 -280 6 -3 38 -3 73 0 35 3 85 3 111 -1 27 -3 51 -1 53
3 3 5 10 6 15 3 7 -5 66 -6 152 -4 25 1 263 0 282 -1 23 -1 14 -1 160 -1 222
1 523 0 632 -1 30 0 31 -3 35 -44 2 -25 1 -52 -3 -61 -3 -9 -2 -36 1 -59 4
-24 5 -46 2 -48 -6 -7 -8 -106 -2 -106 6 0 4 -129 -1 -135 -2 -2 -2 -26 -1
-54 l4 -50 39 2 c21 2 39 0 39 -3 0 -6 99 -4 105 2 3 2 27 2 55 -2 27 -3 55
-3 61 0 6 4 27 4 47 0 21 -3 48 -3 62 0 14 4 34 4 44 0 11 -3 39 -3 63 0 23 4
43 4 43 1 0 -7 99 -6 105 1 3 2 27 2 55 -2 27 -3 55 -3 61 0 6 4 27 4 47 0 21
-3 48 -3 62 0 14 4 34 4 44 0 11 -3 39 -3 63 0 23 4 43 4 43 1 0 -7 99 -6 105
1 3 2 27 2 55 -2 27 -3 55 -3 61 0 6 4 27 4 47 0 21 -3 48 -3 62 0 14 4 34 4
44 0 11 -3 39 -3 63 0 23 4 43 4 43 0 0 -4 20 -4 45 0 25 4 45 4 45 0 0 -3 23
-4 50 0 28 4 53 3 55 -1 3 -4 14 -5 25 -2 18 5 27 39 22 84 -2 19 -3 117 -2
286 l1 192 222 1 c122 1 238 1 257 1 19 0 76 0 125 0 126 1 177 -1 186 -7 4
-2 10 0 14 6 4 6 11 8 16 5 7 -5 66 -6 152 -4 11 1 226 0 272 0 11 -1 52 0 90
0 39 1 78 1 87 1 14 -1 17 10 18 66 1 37 1 74 1 82 0 8 0 43 -1 78 -1 35 0 65
3 68 2 3 1 20 -3 38 -4 19 -4 40 1 47 4 7 5 18 1 24 -3 5 -5 22 -3 37 1 14 -2
29 -7 32 -14 8 -144 10 -582 6 -96 -1 -179 -1 -185 -1 -5 0 -75 0 -155 0 -80
0 -154 1 -165 1 -27 2 -27 2 -130 1 -49 0 -97 0 -105 0 -8 1 -33 0 -55 0 -22
-1 -47 -1 -55 0 -8 0 -55 0 -105 0 -49 0 -97 0 -105 0 -8 1 -33 0 -55 0 -22
-1 -47 -1 -55 0 -8 0 -55 0 -105 0 -49 0 -97 0 -105 0 -8 1 -33 0 -55 0 -22
-1 -48 -1 -57 0 -10 0 -70 0 -133 0 -63 0 -171 0 -240 0 -69 0 -177 0 -240 0
-63 0 -123 0 -132 0 -10 0 -45 0 -78 0 -33 0 -67 0 -75 0 -8 0 -82 0 -165 0
-82 0 -205 0 -272 0 -68 0 -175 0 -238 0 -63 0 -123 0 -132 0 -14 0 -91 0
-158 0 -5 0 -53 0 -105 0 -52 0 -116 0 -142 0 l-48 1 -1 56 c-1 31 -1 61 1 67
1 5 1 60 0 122 -1 143 -1 114 -1 288 0 83 1 168 2 190 0 22 1 47 1 55 -4 100
-1 243 4 252 5 7 0 9 -14 6 -12 -4 -22 -3 -22 1 0 3 -30 4 -66 1 -36 -3 -67
-4 -69 -2 -5 5 -216 8 -220 3z"/>
</g>
</svg>
